<?xml version="1.0" encoding="UTF-8"?>
<svg id="Capa_1" xmlns="http://www.w3.org/2000/svg" version="1.1" viewBox="0 0 1000 1000">
  <!-- Generator: Adobe Illustrator 29.1.0, SVG Export Plug-In . SVG Version: 2.1.0 Build 142)  -->
  <defs>
    <style>
      .st0 {
        fill: #a38d69;
      }
    </style>
  </defs>
  <g>
    <path class="st0" d="M488.38,337.28s0,0,0,0c5.53-3.66,9.12-9.7,9.71-16.4l4.52-26.97c-33.79,0-38.56,18.42-38.59,38.21-1.51-.54-3.42-2.18-3.42-4.96-.03-.74-.07-1.48-.1-2.2-.47-10.15,1.46-18.18-30.61-18.57,3.29.51,14.62,3.07,8.71,15.91-12.98,28.16,25.61,51.58,28.38,53.61,8.72,9.35,19.74,16.05,31.76,19.49l-4.29-11.78c-1.9-5.23-7.4-8.06-12.66-6.57-4.88,1.38-10.75,1.95-14.83-1.23-.57-1.06-.97-2.25-1.32-3.54-.1-.35-.22-.8-.36-1.34-2.42-10.88,13.2-27.1,23.12-33.65ZM464.92,369.67c0-.05-.02-.1-.02-.14.03.13.06.26.08.38-.02-.08-.04-.16-.06-.24Z"/>
    <path class="st0" d="M531.65,356.23v-32.51c0-7.27-1.19-14.51-4.05-21.33-3.51-8.35-9.06-15.93-16.45-21.86-7.36-5.91-16.08-10.07-25.64-12.16-4.5-.99-9.11-1.46-13.73-1.47-2.86,0-5.73,0-8.59,0-3.46,0-6.89.05-10.33.47-4.9.6-9.74,1.75-14.33,3.43-8.89,3.24-16.88,8.54-23.07,15.18-6.38,6.84-10.94,15.15-13.05,23.91-1.32,5.47-1.59,10.96-1.59,16.53v33.65c0,5.87.39,11.65,1.96,17.38,2.38,8.69,7.13,16.88,13.7,23.55,6.4,6.49,14.52,11.6,23.53,14.63,4.66,1.57,9.54,2.62,14.48,3.09,3.25.31,6.51.29,9.77.29h7.59c9.85-.02,19.7-2.27,28.34-6.58,8.37-4.17,15.66-10.24,20.93-17.46,5.65-7.74,9.21-16.66,10.19-25.92.45-4.26.34-8.54.34-12.81ZM407.98,380.01s0,0,0,0h0ZM527.88,366.31s.02-.21.03-.34c0,.11,0,.25-.03.34ZM527.98,323.94v37.88c0,.39,0,.77,0,1.16,0,.42,0,.83-.01,1.25-.01.54-.04,1.09-.07,1.63,0,.03,0,.07,0,.11,0,.01,0,.03,0,.05-.03.35-.06.69-.09,1.04-.11,1.07-.25,2.13-.43,3.18-.09.52-.19,1.05-.29,1.57-.05.26-.11.52-.17.78,0,.04-.03.14-.05.22,0,.04-.02.07-.02.09-.52,2.11-1.18,4.19-1.99,6.23-.1.24-.2.49-.29.73-.02.04-.05.11-.07.16-.01.03-.03.06-.04.09-.23.51-.46,1.02-.7,1.53-.47.98-.97,1.94-1.5,2.89-.53.95-1.09,1.88-1.68,2.79-.29.44-.58.88-.88,1.31-.06.09-.13.18-.19.28-.01.02-.02.03-.03.04-.17.24-.35.48-.52.71-2.58,3.46-5.62,6.64-9.02,9.45-6.53,5.39-15.22,9.69-24.05,11.68-4.58,1.03-9.29,1.54-14.01,1.55-5.76,0-11.62.26-17.36-.29-9.34-.89-18.3-3.93-26.06-8.75-.96-.6-1.9-1.22-2.82-1.86-.98-.69-1.61-1.16-2.43-1.82-1.74-1.39-3.38-2.88-4.93-4.46-1.52-1.55-2.94-3.18-4.24-4.87-.32-.42-.64-.84-.95-1.27-.28-.39-.08-.11-.02-.03-.06-.09-.13-.18-.19-.28-.17-.25-.34-.5-.51-.74-.61-.91-1.18-1.83-1.73-2.77-.55-.94-1.06-1.9-1.54-2.87-.23-.47-.46-.94-.68-1.42-.11-.24-.22-.48-.32-.72-.04-.09-.08-.19-.12-.28,0-.02-.02-.05-.03-.08-.82-2.03-1.53-4.09-2.09-6.19-.07-.26-.13-.51-.2-.77-.02-.08-.03-.13-.04-.17,0,0,0-.02,0-.03-.12-.56-.24-1.11-.34-1.67-.2-1.09-.37-2.19-.5-3.28-.06-.53-.11-1.06-.16-1.59,0-.04,0-.1-.01-.18-.02-.31-.03-.62-.05-.93-.03-.67-.04-1.35-.04-2.02,0-3.49,0-6.97,0-10.46v-18.53c0-3.69,0-7.38,0-11.07,0-.38,0-.76.01-1.14.01-.54.03-1.09.06-1.63.01-.22.11-1.09,0-.16.04-.31.05-.61.08-.92.11-1.1.25-2.21.43-3.3.08-.49.17-.97.27-1.46.06-.3.12-.59.19-.89.02-.09.04-.17.06-.26,0-.02,0-.03.01-.05.52-2.08,1.15-4.12,1.93-6.13.1-.24.19-.49.29-.73.04-.11.09-.21.13-.32.22-.49.44-.99.67-1.48.46-.98.96-1.95,1.49-2.9.53-.95,1.08-1.88,1.67-2.8.28-.44.57-.88.87-1.31.08-.12.17-.25.26-.37,0-.01.06-.09.1-.14.03-.04.05-.07.05-.07.11-.15.22-.3.33-.46,1.3-1.75,2.71-3.43,4.22-5.03,1.51-1.6,3.13-3.11,4.85-4.53,1.63-1.35,3.23-2.52,5.17-3.77,7.65-4.92,16.56-8.11,25.85-9.14,6.04-.67,12.23-.4,18.31-.39,9.25.01,18.28,1.98,26.47,5.88,8.23,3.92,15.02,9.38,20.34,16.35.29.38.58.77.86,1.16.04.06.24.35.29.42.17.25.34.5.5.75.6.91,1.17,1.83,1.71,2.77.54.94,1.05,1.9,1.53,2.87.23.47.46.94.67,1.42.11.24.21.48.32.72,0,0,.01.02.02.04.04.11.12.28.13.32.83,2.03,1.51,4.1,2.06,6.2.07.26.13.51.19.77,0,.02,0,.04.01.05.01.05.02.1.03.15.12.56.23,1.12.33,1.68.2,1.09.36,2.19.48,3.29.05.42.07.85.12,1.27,0,0,0,.07.02.17,0,.06.01.11.02.17,0-.04,0-.08-.01-.12,0,.05,0,.1.01.16.02.31.03.62.04.93.02.64.03,1.28.04,1.92,0,.34,0,.69,0,1.03Z"/>
    <path class="st0" d="M527.89,318.7s0-.04,0-.06c0-.06-.01-.13-.02-.19,0,0,0,.07.02.25Z"/>
  </g>
  <g>
    <g>
      <path class="st0" d="M282.11,507.97c9.48,0,18.01,1.61,25.62,4.83,7.6,3.22,14.12,7.74,19.59,13.55,5.45,5.81,9.66,12.83,12.61,21.06,2.95,8.23,4.43,17.35,4.43,27.36h-104.36c.54,9.3,2.28,17.8,5.23,25.49,2.95,7.69,6.88,14.31,11.8,19.85,4.92,5.55,10.64,9.88,17.17,13.01,6.52,3.13,13.63,4.7,21.33,4.7,10.55,0,19.62-2.86,27.22-8.59,7.6-5.72,14.8-15.11,21.6-28.17h1.34c-3.58,8.23-7.42,15.2-11.53,20.92-4.12,5.73-8.68,10.37-13.68,13.95-5.01,3.58-10.6,6.22-16.77,7.91-6.16,1.7-13.19,2.55-21.06,2.55-10.55,0-20.34-1.74-29.37-5.23-9.03-3.49-16.81-8.32-23.34-14.49-6.53-6.17-11.67-13.5-15.42-22-3.76-8.49-5.64-17.66-5.64-27.5s1.92-18.42,5.77-26.83c3.85-8.4,9.08-15.74,15.7-22,6.61-6.26,14.4-11.22,23.33-14.89,8.95-3.66,18.42-5.5,28.44-5.5ZM239.99,571.01h30.85c13.05,0,23.07-2.64,30.05-7.91,6.97-5.27,10.47-12.83,10.47-22.67,0-8.58-2.69-15.47-8.05-20.66-5.37-5.19-12.61-7.78-21.73-7.78-6.08,0-11.67,1.43-16.76,4.29-5.1,2.86-9.48,6.89-13.15,12.07-3.67,5.19-6.53,11.31-8.58,18.38-2.06,7.07-3.09,14.89-3.09,23.47v.81Z"/>
      <path class="st0" d="M365.01,643.71v-164.71l27.36-23.07h1.34v187.78h-28.7Z"/>
      <path class="st0" d="M410.34,484.9c0-4.65,1.65-8.63,4.96-11.94,3.31-3.31,7.29-4.96,11.94-4.96s8.68,1.66,12.07,4.96c3.4,3.31,5.1,7.29,5.1,11.94s-1.7,8.63-5.1,11.94c-3.4,3.31-7.42,4.96-12.07,4.96s-8.63-1.65-11.94-4.96c-3.31-3.31-4.96-7.29-4.96-11.94ZM445.21,643.71h-28.97v-111.06l27.64-23.07h1.34v134.13Z"/>
      <path class="st0" d="M464.52,643.71v-111.06l27.37-23.07h1.34v33.8c1.78-4.83,4.2-9.3,7.24-13.41,3.04-4.11,6.53-7.69,10.47-10.73,3.93-3.04,8.22-5.41,12.88-7.11,4.65-1.7,9.39-2.55,14.22-2.55,7.68,0,14.71,1.16,21.06,3.49,6.35,2.33,11.76,5.55,16.22,9.66,4.47,4.12,7.91,9.12,10.33,15.02,2.42,5.9,3.62,12.43,3.62,19.58v86.38h-28.97v-83.97c0-11.44-2.73-20.25-8.18-26.42-5.46-6.17-13.28-9.26-23.48-9.26-8.23,0-15.65,3-22.27,8.99-6.62,5.99-11,13.82-13.14,23.47v87.19h-28.71Z"/>
      <path class="st0" d="M757.2,643.71h-17.44c-7.51,0-11.26-4.2-11.26-12.61v-13.68c-4.83,8.41-11.85,15.25-21.06,20.52-9.22,5.28-19.18,7.91-29.91,7.91s-20.75-1.65-29.51-4.96c-8.76-3.31-16.27-7.96-22.53-13.95-6.27-5.99-11.09-13.23-14.49-21.73-3.4-8.49-5.1-17.93-5.1-28.3s1.75-19.27,5.23-27.76c3.49-8.49,8.32-15.78,14.49-21.86,6.16-6.08,13.5-10.82,22-14.22,8.49-3.39,17.84-5.1,28.03-5.1,5.73,0,11.31.67,16.77,2.01,5.45,1.34,10.5,3.27,15.16,5.77,4.65,2.51,8.76,5.5,12.34,8.99s6.44,7.38,8.59,11.67v-57.41l27.9-23.07h.8v187.78ZM728.5,547.41c-3.76-7.51-9.35-13.59-16.77-18.24-7.42-4.65-15.52-6.98-24.27-6.98-7.51,0-14.31,1.34-20.39,4.02-6.08,2.68-11.36,6.44-15.83,11.27-4.48,4.83-7.91,10.6-10.33,17.3-2.41,6.71-3.62,14.08-3.62,22.13s1.21,15.43,3.62,22.13c2.42,6.71,5.85,12.47,10.33,17.3,4.47,4.83,9.74,8.58,15.83,11.27,6.08,2.68,12.88,4.02,20.39,4.02,8.76,0,16.85-2.32,24.27-6.97,7.42-4.65,13.01-10.73,16.77-18.24v-59.02Z"/>
      <path class="st0" d="M866.12,518.7c-8.76-7.87-20.84-11.8-36.21-11.8-7.87,0-15.7,1.57-23.48,4.69-7.78,3.13-14.8,7.47-21.06,13.01v31.65h2.68c0-6.26,1.03-12.16,3.09-17.71,2.06-5.54,4.74-10.37,8.05-14.49,3.31-4.11,7.24-7.33,11.81-9.66,4.56-2.32,9.34-3.49,14.35-3.49,16.64,0,24.95,9.03,24.95,27.09v86.65c-2.86,4.12-6.08,6.97-9.66,8.59-3.58,1.61-7.78,2.41-12.61,2.41-6.79,0-12.38-2.41-16.76-7.24-4.38-4.83-6.57-11-6.57-18.51s1.74-14.22,5.23-19.05c3.48-4.83,7.68-8.99,12.61-12.48,4.92-3.49,9.97-6.84,15.16-10.06,3.3-2.05,6.21-4.37,8.77-6.94v-5.85c-1.89,2.12-4.12,4.03-6.76,5.68-4.74,2.95-9.93,5.54-15.56,7.78-5.63,2.24-11.49,4.43-17.57,6.57-6.08,2.15-11.58,4.79-16.5,7.91-4.92,3.13-8.94,6.89-12.07,11.27-3.13,4.38-4.7,9.97-4.7,16.77,0,4.83,1.21,9.35,3.63,13.55,2.41,4.2,5.77,7.78,10.06,10.73,4.29,2.95,9.34,5.28,15.15,6.97,5.81,1.7,12.21,2.55,19.18,2.55,12.88,0,22.54-4.56,28.97-13.68v2.15c0,6.62,3.75,9.93,11.27,9.93h17.7v-92.55c0-13.77-4.38-24.59-13.15-32.46Z"/>
      <path class="st0" d="M187.28,569.94c-2.41-5.36-5.81-10.19-10.19-14.49-4.39-4.29-9.62-7.87-15.7-10.73-6.08-2.86-12.79-4.83-20.12-5.9,4.83-2.68,9.43-5.45,13.82-8.32,4.38-2.86,8.22-5.94,11.53-9.26,3.31-3.31,5.9-6.79,7.78-10.46,1.88-3.66,2.82-7.64,2.82-11.94,0-6.79-1.79-12.83-5.36-18.11-3.58-5.27-8.72-9.74-15.43-13.41-6.7-3.66-14.8-6.48-24.28-8.45-9.48-1.97-20.11-2.95-31.92-2.95h-59.28v187.78h70.28c25.04,0,44.58-4.92,58.62-14.75,14.04-9.83,21.06-23.7,21.06-41.58,0-6.26-1.21-12.07-3.63-17.44ZM152.95,607.5c-2.78,6.8-6.75,12.61-11.94,17.44-5.19,4.83-11.4,8.54-18.65,11.13-7.24,2.59-15.33,3.89-24.27,3.89h-26.02v-180.27h14.21c17.89,0,31.88,3.4,41.98,10.19,10.11,6.8,15.16,16.54,15.16,29.24,0,6.62-1.38,12.61-4.16,17.97-2.78,5.36-6.39,10.29-10.86,14.75-4.47,4.47-9.43,8.63-14.89,12.47-5.46,3.85-10.82,7.64-16.1,11.4-5.27,3.76-10.15,7.65-14.62,11.67-1.11,1-2.17,2.02-3.17,3.07v6.72c3.12-3.71,6.88-7.2,11.35-10.47,5.63-4.11,11.98-7.96,19.05-11.54,7.06-3.58,14.08-7.24,21.06-11,8.04,2.33,14.39,7.07,19.04,14.22,4.65,7.16,6.98,16.01,6.98,26.56,0,8.23-1.39,15.74-4.16,22.53Z"/>
    </g>
    <path class="st0" d="M923.24,464.2c6.16,0,12.18,1.58,18.04,4.74,5.87,3.16,10.44,7.69,13.72,13.57,3.27,5.88,4.91,12.02,4.91,18.41s-1.61,12.4-4.84,18.24c-3.23,5.84-7.75,10.37-13.57,13.59-5.82,3.23-11.91,4.84-18.26,4.84s-12.44-1.61-18.26-4.84c-5.82-3.23-10.35-7.76-13.59-13.59-3.24-5.84-4.86-11.92-4.86-18.24s1.65-12.52,4.94-18.41c3.29-5.89,7.87-10.41,13.74-13.57,5.87-3.16,11.88-4.74,18.04-4.74ZM923.24,470.28c-5.16,0-10.18,1.32-15.05,3.96-4.88,2.64-8.7,6.42-11.45,11.33-2.76,4.91-4.14,10.03-4.14,15.35s1.35,10.35,4.06,15.2c2.71,4.85,6.5,8.63,11.36,11.33,4.86,2.71,9.94,4.06,15.23,4.06s10.36-1.35,15.23-4.06c4.86-2.71,8.64-6.49,11.33-11.33,2.69-4.85,4.04-9.92,4.04-15.2s-1.37-10.43-4.11-15.35c-2.74-4.91-6.56-8.69-11.45-11.33-4.9-2.64-9.91-3.96-15.03-3.96ZM907.14,521.21v-39.5h13.57c4.64,0,7.99.36,10.07,1.09,2.08.73,3.73,2,4.96,3.82,1.23,1.82,1.85,3.75,1.85,5.79,0,2.89-1.03,5.4-3.09,7.54-2.06,2.14-4.79,3.34-8.19,3.6,1.39.58,2.51,1.28,3.36,2.09,1.59,1.56,3.53,4.17,5.84,7.83l4.81,7.73h-7.78l-3.5-6.23c-2.75-4.9-4.98-7.96-6.66-9.19-1.17-.91-2.87-1.36-5.11-1.36h-3.75v16.78h-6.37ZM913.51,498.98h7.73c3.7,0,6.22-.55,7.57-1.65,1.34-1.1,2.02-2.56,2.02-4.38,0-1.17-.33-2.21-.98-3.14-.65-.93-1.55-1.61-2.7-2.07s-3.28-.68-6.4-.68h-7.25v11.92Z"/>
  </g>
  <g>
    <g>
      <path class="st0" d="M292.08,721.11l8.38-1.23c1.87,4.57,8.5,7.44,16.58,7.44s12.42-2.52,12.42-6.21c0-10.14-36.51-4.22-36.51-19.87,0-7.44,7.85-11.78,20.75-11.78s20.86,3.98,23.62,11.13l-8.32,1.23c-1.82-4.81-7.5-7.44-15.24-7.44s-12.37,2.58-12.37,6.27c0,10.08,36.51,4.16,36.51,19.87,0,7.44-7.85,11.72-21.04,11.72s-21.92-4.04-24.79-11.13Z"/>
      <path class="st0" d="M386.4,695.5h-19.69v-5.16h47.7v5.16h-19.69v35.87h-8.32v-35.87Z"/>
      <path class="st0" d="M442.04,710.85c0-12.83,11.72-21.39,27.78-21.39s27.78,8.56,27.78,21.39-11.72,21.39-27.78,21.39-27.78-8.55-27.78-21.39ZM489.16,710.85c0-9.67-8.55-16.23-19.34-16.23s-19.34,6.56-19.34,16.23,8.56,16.23,19.34,16.23,19.34-6.56,19.34-16.23Z"/>
      <path class="st0" d="M528.62,690.34h26.72c11.55,0,17.64,4.4,17.64,11.78,0,5.1-2.99,8.79-10.55,10.02v.59c5.39.76,6.97,3.63,6.97,7.97v4.28c0,1.87.41,3.81,1.53,5.69v.7h-8.5c-.94-2.17-1.35-4.28-1.35-6.39v-4.16c0-4.1-1.87-6.09-6.56-6.09h-17.58v16.64h-8.32v-41.02ZM554.7,709.92c6.68,0,9.96-2.58,9.96-7.15s-3.28-7.27-9.96-7.27h-17.76v14.42h17.76Z"/>
      <path class="st0" d="M604.9,690.34h39.09v5.16h-30.77v12.54h28.72v5.04h-28.72v13.13h31.06v5.16h-39.38v-41.02Z"/>
    </g>
    <g>
      <circle class="st0" cx="256.91" cy="709.88" r="4.05"/>
      <circle class="st0" cx="680.19" cy="709.88" r="4.05"/>
    </g>
  </g>
</svg>