<?xml version="1.0" encoding="UTF-8"?>
<svg id="Capa_1" xmlns="http://www.w3.org/2000/svg" version="1.1" viewBox="0 0 1000 1000">
  <!-- Generator: Adobe Illustrator 29.1.0, SVG Export Plug-In . SVG Version: 2.1.0 Build 142)  -->
  <defs>
    <style>
      .st0 {
        fill: currentColor;
      }
    </style>
  </defs>
  <g>
    <g>
      <path class="st0" d="M407.06,464.5c7.7,0,14.63,1.31,20.8,3.92,6.17,2.61,11.47,6.28,15.9,11,4.42,4.72,7.84,10.42,10.24,17.1,2.4,6.68,3.6,14.09,3.6,22.22h-84.73c.44,7.55,1.85,14.45,4.25,20.69,2.4,6.25,5.59,11.62,9.58,16.12,3.99,4.5,8.64,8.03,13.94,10.56,5.3,2.54,11.07,3.81,17.32,3.81,8.56,0,15.93-2.32,22.1-6.97,6.17-4.65,12.02-12.27,17.54-22.87h1.09c-2.91,6.68-6.02,12.34-9.36,16.99-3.34,4.65-7.04,8.42-11.11,11.33-4.07,2.91-8.61,5.05-13.62,6.43-5.01,1.38-10.71,2.07-17.1,2.07-8.57,0-16.52-1.42-23.85-4.25-7.34-2.83-13.65-6.75-18.95-11.76-5.3-5.01-9.47-10.96-12.52-17.86-3.05-6.9-4.58-14.34-4.58-22.33s1.56-14.95,4.68-21.78c3.12-6.82,7.37-12.78,12.75-17.86,5.37-5.08,11.69-9.11,18.95-12.09,7.26-2.97,14.96-4.47,23.09-4.47ZM372.87,515.69h25.05c10.6,0,18.73-2.14,24.4-6.43,5.66-4.28,8.5-10.42,8.5-18.41,0-6.97-2.18-12.56-6.53-16.77-4.36-4.21-10.24-6.32-17.65-6.32-4.93,0-9.47,1.16-13.61,3.49-4.14,2.32-7.7,5.59-10.67,9.8-2.98,4.21-5.3,9.19-6.97,14.92-1.67,5.74-2.51,12.09-2.51,19.06v.65Z"/>
      <path class="st0" d="M474.37,574.72v-133.74l22.21-18.73h1.09v152.47h-23.3Z"/>
      <path class="st0" d="M511.18,445.77c0-3.77,1.34-7,4.03-9.69,2.69-2.68,5.92-4.03,9.69-4.03s7.04,1.34,9.8,4.03c2.76,2.69,4.14,5.92,4.14,9.69s-1.38,7.01-4.14,9.69c-2.76,2.69-6.02,4.03-9.8,4.03s-7.01-1.34-9.69-4.03c-2.69-2.68-4.03-5.92-4.03-9.69ZM539.49,574.72h-23.52v-90.18l22.44-18.73h1.09v108.91Z"/>
      <path class="st0" d="M555.17,574.72v-90.18l22.22-18.73h1.09v27.45c1.45-3.92,3.41-7.55,5.88-10.89,2.47-3.34,5.3-6.24,8.5-8.71,3.19-2.47,6.68-4.39,10.45-5.77,3.77-1.38,7.63-2.07,11.55-2.07,6.24,0,11.94.95,17.1,2.83,5.15,1.89,9.54,4.5,13.17,7.84,3.63,3.34,6.43,7.41,8.39,12.2,1.96,4.79,2.94,10.09,2.94,15.9v70.14h-23.52v-68.18c0-9.29-2.21-16.45-6.64-21.45-4.44-5.01-10.78-7.51-19.06-7.51-6.68,0-12.71,2.43-18.08,7.3-5.37,4.87-8.93,11.22-10.67,19.06v70.79h-23.31Z"/>
      <path class="st0" d="M792.82,574.72h-14.16c-6.1,0-9.14-3.41-9.14-10.24v-11.11c-3.93,6.83-9.62,12.38-17.1,16.66-7.48,4.28-15.58,6.43-24.29,6.43s-16.85-1.34-23.96-4.03c-7.12-2.68-13.21-6.46-18.29-11.33-5.09-4.86-9.01-10.74-11.76-17.64-2.76-6.9-4.14-14.56-4.14-22.98s1.42-15.64,4.25-22.54c2.83-6.9,6.75-12.81,11.76-17.75,5.01-4.94,10.96-8.78,17.86-11.54,6.89-2.76,14.48-4.14,22.76-4.14,4.65,0,9.18.55,13.62,1.63,4.42,1.09,8.52,2.65,12.31,4.68,3.77,2.04,7.11,4.47,10.02,7.3,2.91,2.83,5.23,5.99,6.97,9.48v-46.61l22.65-18.73h.65v152.47ZM769.51,496.52c-3.05-6.1-7.59-11.03-13.62-14.81-6.02-3.77-12.6-5.66-19.71-5.66-6.1,0-11.62,1.09-16.56,3.27-4.94,2.18-9.22,5.23-12.85,9.15-3.63,3.92-6.43,8.6-8.39,14.05-1.96,5.45-2.94,11.44-2.94,17.97s.98,12.53,2.94,17.97c1.96,5.45,4.75,10.13,8.39,14.05,3.63,3.92,7.91,6.97,12.85,9.15,4.93,2.18,10.45,3.27,16.56,3.27,7.11,0,13.68-1.88,19.71-5.66,6.02-3.77,10.56-8.71,13.62-14.81v-47.92Z"/>
      <path class="st0" d="M881.25,473.22c-7.12-6.39-16.92-9.58-29.4-9.58-6.39,0-12.75,1.27-19.06,3.81-6.32,2.54-12.02,6.06-17.1,10.56v25.7h2.18c0-5.08.84-9.87,2.51-14.38,1.67-4.5,3.85-8.42,6.53-11.76,2.69-3.34,5.88-5.95,9.59-7.84,3.7-1.89,7.58-2.83,11.65-2.83,13.51,0,20.26,7.33,20.26,22v70.35c-2.32,3.34-4.94,5.66-7.84,6.97-2.91,1.31-6.32,1.96-10.24,1.96-5.52,0-10.05-1.96-13.61-5.88-3.56-3.92-5.33-8.93-5.33-15.03s1.41-11.54,4.25-15.46c2.83-3.92,6.24-7.3,10.24-10.13,3.99-2.83,8.09-5.55,12.31-8.17,2.68-1.66,5.04-3.55,7.12-5.63v-4.75c-1.54,1.72-3.34,3.27-5.49,4.61-3.85,2.4-8.06,4.5-12.64,6.32-4.57,1.82-9.33,3.59-14.26,5.34-4.94,1.74-9.4,3.89-13.4,6.43-3.99,2.54-7.26,5.59-9.8,9.15-2.54,3.56-3.82,8.1-3.82,13.61,0,3.92.98,7.59,2.94,11,1.96,3.41,4.68,6.32,8.17,8.71,3.48,2.4,7.58,4.28,12.3,5.66,4.72,1.38,9.91,2.07,15.58,2.07,10.45,0,18.3-3.7,23.52-11.11v1.74c0,5.37,3.05,8.06,9.15,8.06h14.37v-75.15c0-11.18-3.56-19.96-10.67-26.36Z"/>
      <path class="st0" d="M330.07,514.82c-1.96-4.36-4.72-8.28-8.27-11.76-3.56-3.49-7.81-6.39-12.75-8.71-4.94-2.32-10.38-3.92-16.34-4.79,3.93-2.18,7.66-4.43,11.22-6.75,3.55-2.32,6.68-4.83,9.36-7.51,2.69-2.68,4.79-5.52,6.32-8.49,1.52-2.97,2.29-6.21,2.29-9.69,0-5.52-1.45-10.42-4.35-14.7-2.91-4.28-7.08-7.91-12.53-10.89-5.44-2.97-12.02-5.26-19.71-6.86-7.7-1.6-16.33-2.4-25.92-2.4h-48.13v152.47h57.06c20.33,0,36.19-3.99,47.6-11.98,11.4-7.98,17.1-19.24,17.1-33.76,0-5.08-.98-9.8-2.94-14.16ZM302.19,545.31c-2.25,5.52-5.48,10.24-9.69,14.16-4.22,3.92-9.26,6.94-15.14,9.04-5.88,2.11-12.45,3.16-19.71,3.16h-21.13v-146.37h11.54c14.52,0,25.89,2.76,34.09,8.28,8.21,5.52,12.31,13.43,12.31,23.74,0,5.37-1.12,10.24-3.38,14.59-2.25,4.36-5.19,8.35-8.82,11.98-3.63,3.63-7.66,7.01-12.09,10.13-4.43,3.12-8.79,6.21-13.07,9.26-4.28,3.05-8.24,6.21-11.87,9.47-.9.81-1.76,1.64-2.57,2.49v5.46c2.53-3.01,5.59-5.85,9.21-8.5,4.57-3.34,9.73-6.46,15.47-9.37,5.73-2.9,11.44-5.88,17.1-8.93,6.53,1.89,11.68,5.74,15.46,11.54,3.78,5.81,5.67,13,5.67,21.56,0,6.68-1.13,12.78-3.38,18.3Z"/>
    </g>
    <path class="st0" d="M927.63,428.96c5,0,9.89,1.28,14.65,3.85,4.77,2.57,8.48,6.24,11.14,11.02,2.66,4.78,3.99,9.76,3.99,14.95s-1.31,10.07-3.93,14.81c-2.62,4.74-6.29,8.42-11.02,11.04-4.73,2.62-9.67,3.93-14.83,3.93s-10.1-1.31-14.83-3.93c-4.73-2.62-8.41-6.3-11.04-11.04-2.63-4.74-3.95-9.68-3.95-14.81s1.34-10.17,4.01-14.95c2.67-4.78,6.39-8.45,11.16-11.02,4.76-2.57,9.65-3.85,14.65-3.85ZM927.63,433.9c-4.19,0-8.26,1.07-12.22,3.22-3.96,2.15-7.06,5.21-9.3,9.2-2.24,3.99-3.36,8.14-3.36,12.46s1.1,8.41,3.3,12.34c2.2,3.94,5.27,7,9.22,9.2,3.95,2.2,8.07,3.3,12.36,3.3s8.41-1.1,12.36-3.3c3.95-2.2,7.01-5.27,9.2-9.2,2.19-3.94,3.28-8.05,3.28-12.34s-1.11-8.47-3.34-12.46c-2.23-3.99-5.33-7.06-9.3-9.2-3.98-2.15-8.05-3.22-12.2-3.22ZM914.55,475.25v-32.07h11.02c3.76,0,6.49.3,8.17.89,1.69.59,3.03,1.63,4.03,3.1,1,1.47,1.5,3.04,1.5,4.7,0,2.34-.84,4.38-2.51,6.12-1.67,1.74-3.89,2.71-6.65,2.92,1.13.47,2.04,1.04,2.72,1.7,1.29,1.26,2.87,3.38,4.74,6.36l3.91,6.28h-6.32l-2.85-5.05c-2.24-3.98-4.04-6.46-5.41-7.46-.95-.74-2.33-1.11-4.15-1.11h-3.04v13.62h-5.17ZM919.73,457.2h6.28c3,0,5.05-.45,6.14-1.34,1.09-.89,1.64-2.08,1.64-3.56,0-.95-.27-1.8-.79-2.55-.53-.75-1.26-1.31-2.19-1.68s-2.67-.55-5.19-.55h-5.89v9.67Z"/>
  </g>
  <g>
    <path class="st0" d="M130.82,492.48s0,0,0,0c5.52-3.65,9.1-9.68,9.68-16.37l4.51-26.91c-33.72,0-38.48,18.38-38.51,38.13-1.51-.54-3.41-2.17-3.41-4.95-.03-.74-.07-1.47-.1-2.19-.47-10.13,1.45-18.14-30.54-18.53,3.29.5,14.59,3.07,8.69,15.88-12.95,28.1,25.56,51.47,28.32,53.5,8.7,9.33,19.7,16.01,31.69,19.45l-4.28-11.76c-1.9-5.22-7.39-8.05-12.64-6.56-4.87,1.38-10.72,1.94-14.8-1.22-.57-1.06-.97-2.25-1.32-3.53-.1-.35-.22-.8-.36-1.34-2.41-10.85,13.17-27.04,23.07-33.58ZM107.41,524.8c0-.05-.02-.1-.02-.14.03.13.06.26.08.38-.02-.08-.04-.16-.06-.24Z"/>
    <path class="st0" d="M174,511.39v-32.44c0-7.26-1.19-14.48-4.05-21.28-3.5-8.33-9.04-15.89-16.42-21.81-7.35-5.9-16.05-10.05-25.58-12.14-4.49-.98-9.09-1.46-13.7-1.47-2.86,0-5.71,0-8.57,0-3.45,0-6.88.05-10.31.47-4.89.59-9.72,1.75-14.3,3.42-8.87,3.24-16.84,8.53-23.02,15.15-6.37,6.82-10.91,15.12-13.02,23.86-1.32,5.46-1.59,10.93-1.59,16.49v33.58c0,5.86.39,11.63,1.95,17.34,2.37,8.67,7.12,16.84,13.67,23.5,6.38,6.48,14.49,11.58,23.48,14.6,4.65,1.56,9.52,2.61,14.45,3.08,3.25.31,6.49.29,9.75.29h7.58c9.83-.02,19.66-2.27,28.28-6.57,8.35-4.16,15.62-10.21,20.89-17.43,5.64-7.72,9.19-16.63,10.17-25.87.45-4.25.33-8.52.33-12.78ZM50.6,535.12s0,0,0,0h0ZM170.23,521.45s.02-.21.03-.34c0,.11,0,.25-.03.34ZM170.34,479.17v37.8c0,.38,0,.77,0,1.15,0,.41,0,.83-.01,1.24-.01.54-.04,1.08-.07,1.63,0,.03,0,.07,0,.11,0,.01,0,.03,0,.05-.03.34-.06.69-.09,1.03-.11,1.06-.25,2.12-.43,3.18-.09.52-.19,1.05-.29,1.57-.05.26-.11.52-.17.78,0,.04-.03.14-.05.22,0,.04-.02.07-.02.09-.52,2.11-1.18,4.19-1.98,6.22-.1.24-.2.49-.29.73-.02.04-.05.11-.07.16-.01.03-.03.06-.04.09-.23.51-.46,1.02-.7,1.53-.47.98-.97,1.94-1.5,2.89-.53.94-1.09,1.87-1.68,2.79-.28.44-.58.88-.87,1.31-.06.09-.13.18-.19.28-.01.02-.02.03-.03.04-.17.24-.35.48-.52.71-2.58,3.45-5.61,6.62-9,9.43-6.51,5.38-15.19,9.67-24,11.66-4.57,1.03-9.27,1.54-13.98,1.55-5.75,0-11.6.26-17.33-.29-9.32-.89-18.26-3.92-26.01-8.73-.96-.59-1.9-1.22-2.81-1.86-.98-.69-1.61-1.16-2.42-1.82-1.73-1.39-3.38-2.88-4.92-4.45-1.52-1.54-2.93-3.17-4.24-4.86-.32-.42-.63-.84-.94-1.26-.28-.39-.08-.11-.02-.03-.06-.09-.13-.18-.19-.28-.17-.25-.34-.49-.51-.74-.6-.9-1.18-1.83-1.72-2.76-.55-.94-1.06-1.89-1.54-2.86-.23-.47-.46-.94-.68-1.42-.11-.24-.22-.48-.32-.72-.04-.09-.08-.19-.12-.28,0-.02-.02-.05-.03-.08-.82-2.03-1.53-4.08-2.08-6.18-.07-.26-.13-.51-.2-.77-.02-.08-.03-.13-.04-.17,0,0,0-.02,0-.03-.12-.56-.24-1.11-.34-1.67-.2-1.09-.37-2.18-.49-3.28-.06-.53-.11-1.05-.16-1.58,0-.04,0-.1-.01-.18-.02-.31-.03-.62-.05-.93-.03-.67-.04-1.34-.04-2.02,0-3.48,0-6.96,0-10.44v-18.49c0-3.68,0-7.37,0-11.05,0-.38,0-.76.01-1.14.01-.54.03-1.09.06-1.63.01-.22.11-1.09,0-.16.04-.31.05-.61.08-.92.11-1.1.25-2.2.43-3.29.08-.49.17-.97.27-1.46.06-.3.12-.59.19-.89.02-.09.04-.17.06-.26,0-.02,0-.03.01-.05.52-2.07,1.15-4.12,1.93-6.12.09-.24.19-.49.29-.73.04-.11.09-.21.13-.32.22-.49.44-.98.67-1.47.46-.98.96-1.94,1.48-2.89.52-.95,1.08-1.88,1.67-2.79.28-.44.57-.88.87-1.31.08-.12.17-.25.26-.37,0-.01.06-.09.1-.14.03-.04.05-.07.05-.07.11-.15.22-.3.33-.45,1.29-1.75,2.7-3.42,4.21-5.02,1.51-1.59,3.13-3.1,4.84-4.52,1.63-1.35,3.22-2.51,5.16-3.76,7.64-4.91,16.52-8.09,25.79-9.12,6.03-.67,12.21-.4,18.27-.39,9.23.01,18.24,1.97,26.41,5.87,8.22,3.91,14.99,9.36,20.3,16.32.29.38.58.77.86,1.16.04.06.24.35.29.42.17.25.34.5.5.75.6.91,1.17,1.83,1.71,2.77.54.94,1.05,1.9,1.53,2.87.23.47.45.94.67,1.42.11.24.21.48.32.72,0,0,.01.02.02.04.04.11.12.28.13.32.82,2.02,1.51,4.09,2.05,6.19.07.26.13.51.19.77,0,.02,0,.04.01.05.01.05.02.1.03.15.12.56.23,1.11.33,1.67.2,1.09.36,2.18.48,3.28.05.42.07.84.12,1.27,0,0,0,.07.02.17,0,.06.01.11.02.17,0-.04,0-.08-.01-.12,0,.05,0,.1.01.16.02.31.03.62.04.93.02.64.03,1.27.04,1.91,0,.34,0,.69,0,1.03Z"/>
    <path class="st0" d="M170.25,473.94s0-.04,0-.06c0-.06-.01-.13-.02-.19,0,0,0,.07.02.25Z"/>
  </g>
</svg>