<svg width="109" height="118" viewBox="0 0 109 118" fill="none" xmlns="http://www.w3.org/2000/svg">
<path d="M83.121 64.6869V50.2429C83.121 47.0109 82.592 43.7969 81.32 40.7679C79.763 37.0589 77.293 33.6919 74.011 31.0569C70.74 28.4319 66.866 26.5839 62.621 25.6529C60.624 25.2149 58.575 25.0029 56.521 25.0009C55.249 24.9989 53.977 25.0009 52.706 25.0009C51.17 25.0009 49.644 25.0229 48.118 25.2089C45.941 25.4739 43.79 25.9879 41.751 26.7319C37.802 28.1729 34.252 30.5279 31.502 33.4749C28.666 36.5139 26.644 40.2049 25.706 44.0969C25.12 46.5289 25 48.9649 25 51.4409V66.3929C25 69.0009 25.173 71.5689 25.869 74.1149C26.924 77.9739 29.037 81.6139 31.957 84.5779C34.799 87.4619 38.41 89.7329 42.409 91.0769C44.477 91.7719 46.648 92.2389 48.842 92.4479C50.287 92.5859 51.733 92.5769 53.183 92.5769H56.556C60.933 92.5679 65.307 91.5659 69.147 89.6519C72.865 87.7979 76.103 85.1049 78.447 81.8939C80.957 78.4549 82.537 74.4899 82.973 70.3779C83.174 68.4869 83.122 66.5839 83.122 64.6869H83.121ZM81.444 69.1659C81.444 69.1659 81.452 69.0719 81.456 69.0169C81.456 69.0679 81.456 69.1269 81.444 69.1659ZM81.492 50.3409V67.1689C81.492 67.3399 81.492 67.5109 81.492 67.6829C81.492 67.8669 81.49 68.0519 81.486 68.2359C81.48 68.4779 81.47 68.7189 81.456 68.9599C81.456 68.9739 81.456 68.9909 81.456 69.0089C81.456 69.0149 81.455 69.0209 81.454 69.0289C81.441 69.1819 81.428 69.3359 81.412 69.4889C81.364 69.9619 81.3 70.4339 81.221 70.9039C81.182 71.1369 81.138 71.3699 81.091 71.6009C81.067 71.7159 81.043 71.8319 81.017 71.9469C81.013 71.9659 81.003 72.0099 80.994 72.0449C80.99 72.0629 80.986 72.0779 80.984 72.0849C80.753 73.0229 80.458 73.9489 80.101 74.8539C80.058 74.9619 80.014 75.0699 79.97 75.1779C79.963 75.1959 79.95 75.2269 79.939 75.2509C79.933 75.2649 79.927 75.2779 79.921 75.2919C79.82 75.5199 79.717 75.7469 79.61 75.9729C79.402 76.4069 79.18 76.8359 78.944 77.2579C78.709 77.6779 78.459 78.0919 78.196 78.4979C78.069 78.6939 77.939 78.8879 77.807 79.0799C77.779 79.1209 77.75 79.1619 77.721 79.2029C77.715 79.2109 77.711 79.2169 77.707 79.2229C77.63 79.3289 77.553 79.4349 77.474 79.5399C76.327 81.0769 74.978 82.4889 73.465 83.7389C70.565 86.1339 66.704 88.0459 62.78 88.9299C60.744 89.3889 58.652 89.6139 56.554 89.6179C53.994 89.6179 51.39 89.7319 48.84 89.4889C44.692 89.0929 40.71 87.7439 37.261 85.6019C36.835 85.3369 36.417 85.0609 36.009 84.7739C35.574 84.4679 35.293 84.2569 34.93 83.9659C34.158 83.3459 33.426 82.6849 32.741 81.9859C32.066 81.2989 31.436 80.5749 30.855 79.8209C30.712 79.6349 30.573 79.4469 30.435 79.2579C30.308 79.0849 30.399 79.2079 30.425 79.2449C30.396 79.2039 30.367 79.1629 30.339 79.1219C30.263 79.0119 30.188 78.9019 30.113 78.7909C29.844 78.3879 29.588 77.9779 29.346 77.5619C29.103 77.1439 28.874 76.7189 28.66 76.2879C28.556 76.0789 28.456 75.8689 28.359 75.6579C28.31 75.5519 28.263 75.4459 28.216 75.3389C28.198 75.2969 28.179 75.2549 28.161 75.2129C28.157 75.2029 28.153 75.1919 28.147 75.1789C27.782 74.2769 27.466 73.3619 27.22 72.4269C27.19 72.3129 27.161 72.1989 27.133 72.0849C27.125 72.0509 27.118 72.0259 27.114 72.0079C27.114 72.0039 27.112 71.9999 27.111 71.9959C27.057 71.7489 27.005 71.5009 26.959 71.2529C26.869 70.7689 26.795 70.2819 26.739 69.7939C26.712 69.5589 26.69 69.3239 26.669 69.0889C26.668 69.0689 26.666 69.0439 26.664 69.0099C26.656 68.8719 26.649 68.7349 26.643 68.5969C26.631 68.2979 26.625 67.9979 26.625 67.6989C26.622 66.1499 26.625 64.6009 26.625 63.0519V54.8199C26.625 53.1799 26.623 51.5399 26.625 49.8999C26.625 49.7299 26.626 49.5609 26.63 49.3909C26.635 49.1489 26.645 48.9079 26.658 48.6659C26.663 48.5679 26.707 48.1829 26.66 48.5959C26.676 48.4599 26.682 48.3229 26.696 48.1869C26.743 47.6959 26.808 47.2069 26.889 46.7199C26.925 46.5029 26.965 46.2869 27.007 46.0719C27.033 45.9399 27.061 45.8079 27.09 45.6759C27.098 45.6369 27.107 45.5989 27.116 45.5599C27.118 45.5529 27.12 45.5459 27.122 45.5379C27.353 44.6149 27.633 43.7059 27.98 42.8129C28.022 42.7039 28.065 42.5959 28.109 42.4879C28.128 42.4409 28.148 42.3939 28.168 42.3459C28.266 42.1269 28.362 41.9079 28.465 41.6899C28.671 41.2549 28.891 40.8249 29.126 40.4029C29.36 39.9819 29.607 39.5669 29.868 39.1589C29.994 38.9629 30.123 38.7679 30.255 38.5749C30.293 38.5199 30.331 38.4649 30.369 38.4099C30.372 38.4059 30.397 38.3699 30.413 38.3469C30.424 38.3309 30.434 38.3179 30.436 38.3149C30.485 38.2479 30.534 38.1799 30.584 38.1129C31.16 37.3349 31.787 36.5879 32.46 35.8779C33.133 35.1689 33.852 34.4969 34.613 33.8659C35.338 33.2649 36.048 32.7459 36.91 32.1919C40.31 30.0039 44.265 28.5899 48.394 28.1299C51.078 27.8309 53.829 27.9509 56.527 27.9549C60.634 27.9599 64.648 28.8329 68.287 30.5659C71.945 32.3089 74.959 34.7329 77.324 37.8319C77.454 38.0019 77.581 38.1729 77.705 38.3459C77.723 38.3719 77.813 38.5009 77.836 38.5339C77.912 38.6439 77.986 38.7549 78.06 38.8659C78.328 39.2699 78.582 39.6809 78.822 40.0989C79.063 40.5179 79.29 40.9439 79.503 41.3759C79.606 41.5849 79.705 41.7959 79.802 42.0079C79.85 42.1139 79.897 42.2209 79.944 42.3269C79.946 42.3309 79.949 42.3369 79.952 42.3459C79.972 42.3939 80.004 42.4719 80.01 42.4879C80.377 43.3889 80.683 44.3099 80.924 45.2449C80.953 45.3589 80.98 45.4729 81.009 45.5869C81.011 45.5959 81.013 45.6029 81.015 45.6089C81.02 45.6319 81.024 45.6539 81.029 45.6759C81.083 45.9229 81.133 46.1709 81.178 46.4199C81.266 46.9049 81.337 47.3919 81.391 47.8809C81.412 48.0679 81.424 48.2569 81.442 48.4449C81.442 48.4449 81.446 48.4739 81.45 48.5199C81.453 48.5449 81.455 48.5709 81.458 48.5959C81.456 48.5759 81.454 48.5599 81.452 48.5439C81.454 48.5649 81.455 48.5879 81.457 48.6139C81.465 48.7519 81.472 48.8889 81.477 49.0269C81.488 49.3109 81.493 49.5949 81.493 49.8789C81.493 50.0319 81.493 50.1849 81.493 50.3379L81.492 50.3409Z" fill="#BCA479"/>
<path d="M64.7166 55.7715C64.7166 55.7715 64.7166 55.7715 64.7188 55.7715C67.3755 53.8608 69.1001 50.7062 69.3813 47.2036L71.5503 33.1144C55.3181 33.1144 53.028 42.7369 53.0118 53.0731C52.2852 52.7909 51.3693 51.9361 51.3693 50.4793C51.3531 50.0913 51.3347 49.708 51.3196 49.3318C51.0914 44.0291 52.0192 39.8339 36.6152 39.6328C38.1971 39.8974 43.6403 41.2378 40.7976 47.9444C34.5619 62.6556 53.1004 74.8907 54.4304 75.9512C58.6204 80.833 63.9143 84.3333 69.6873 86.1322L67.6274 79.9759C66.7138 77.2446 64.0711 75.7643 61.5442 76.5414C59.1989 77.2622 56.381 77.5573 54.4207 75.9006C54.1482 75.3457 53.9557 74.7249 53.786 74.0512C53.7406 73.8689 53.6811 73.6338 53.6119 73.3516C52.4517 67.6703 59.9514 59.1977 64.7188 55.7715H64.7166ZM53.4486 72.6896C53.4443 72.6614 53.441 72.6367 53.4378 72.6144C53.4508 72.6826 53.4648 72.7484 53.4789 72.8154C53.4692 72.7743 53.4583 72.7319 53.4486 72.6896Z" fill="#BCA479"/>
<path d="M83.6999 46.0661C83.6999 46.0543 83.6989 46.0437 83.6979 46.0342C83.6949 46.0012 83.6919 45.9681 83.6899 45.9339C83.6899 45.9327 83.6919 45.9716 83.6999 46.0661Z" fill="#A38D69"/>
</svg>
